<?xml version="1.0" ?><svg style="enable-background:new 0 0 64 64;" version="1.1" viewBox="0 0 64 64" xml:space="preserve" xmlns="http://www.w3.org/2000/svg" xmlns:xlink="http://www.w3.org/1999/xlink"><style type="text/css">
	.st0{fill:none;stroke:#000000;stroke-width:2;stroke-linecap:round;stroke-linejoin:round;stroke-miterlimit:10;}
	.st1{fill:none;stroke:#000000;stroke-width:2;stroke-miterlimit:10;}
</style><g id="Layer_1"/><g id="Layer_2"><g><path class="st0" d="M25.8,43.3L8.1,61c-1.5,1.5-3.8,1.5-5.3,0l0,0c-1.5-1.5-1.5-3.8,0-5.3L20.4,38"/><circle class="st0" cx="39" cy="24.8" r="22.8"/><path class="st0" d="M43.5,16.3C43.5,16.3,43.4,16.3,43.5,16.3"/><path class="st0" d="M48.2,27.5c0.5-1.1,0.8-2.3,0.8-3.5c0-1.8-0.6-3.5-1.6-4.8"/><path class="st0" d="M25.5,34.3c3,4.2,7.9,7,13.4,7c9.1,0,16.4-7.4,16.4-16.4S48.1,8.3,39,8.3c-4.1,0-7.9,1.5-10.8,4.1"/><path class="st0" d="M22.5,24.8c0,1.2,0.1,2.4,0.4,3.6"/></g></g></svg>