<svg width="28" height="26" viewBox="0 0 28 26" fill="none" xmlns="http://www.w3.org/2000/svg">
<path d="M7.59688 12.7094L6.00781 15.025L1.77969 12.8219C1.475 12.6672 1.10469 12.7844 0.945312 13.0844C0.851563 13.2625 0.851563 13.4781 0.945312 13.6562L3.43438 18.475C3.59844 18.7937 3.81406 19.0891 4.06719 19.3469L9.94531 25.2812C10.3109 25.6516 10.8969 25.6609 11.2766 25.3094L14.5344 22.2859L18.8984 25.3937C19.0672 25.5156 19.2641 25.5719 19.4562 25.5719C19.7422 25.5719 20.0281 25.4406 20.2156 25.1922L22.9578 21.5875C23.2063 21.2641 23.3422 20.8609 23.3422 20.4531V10.9375L26.5859 6.16094C26.8062 5.8375 26.9375 5.45781 26.9656 5.06875L27.1203 2.95469C27.1531 2.51406 26.9891 2.0875 26.6656 1.78281L25.5078 0.685935C25.3906 0.568748 25.2406 0.48906 25.0766 0.45156C24.7437 0.37656 24.4016 0.48906 24.1813 0.746873L22.9203 2.20937L22.3109 2.24687L20.8062 1.26719C20.4688 1.05156 20.0797 0.934373 19.6812 0.934373H16.8453C16.4047 0.934373 15.9875 1.13125 15.7109 1.47344L14.0281 3.55C13.7984 3.83594 13.6156 4.15469 13.4937 4.50156L11.4688 10.2016C11.3984 10.4031 11.4078 10.6234 11.5016 10.8156C11.5953 11.0078 11.7547 11.1531 11.9562 11.2281C12.0406 11.2609 12.1344 11.275 12.2234 11.275H14.0141V12.1141H8.71719C8.26719 12.1187 7.84531 12.3391 7.59219 12.7141L7.59688 12.7094ZM2.24375 14.1203L5.47812 15.8031L4.13281 17.7672L2.24844 14.1203H2.24375ZM14.9609 12.1L19.1797 17.1953L14.9703 20.6828L14.9609 12.5781V12.1ZM22.4094 19.6234L15.4859 11.2656H22.4094V19.6234ZM19.4469 24.625L15.2703 21.6484L19.7797 17.9172L22.2594 20.9078C22.2406 20.9406 22.2453 20.9875 22.2219 21.0156L19.4516 24.625H19.4469ZM26.1828 2.95L26.0563 4.68437L23.6281 3.10469L26.1828 2.95ZM25.5828 2.04531L24.2234 2.12969L24.875 1.375L25.5828 2.04531ZM16.4375 2.06406C16.5359 1.94219 16.6859 1.87187 16.8453 1.87187H19.6812C19.9016 1.87187 20.1125 1.93281 20.2953 2.05469L25.8125 5.64062L22.7656 10.1266L14.7641 4.13594L16.4375 2.06875V2.06406ZM12.4156 10.3422L14.3234 4.97031L21.4719 10.3234L12.4156 10.3375V10.3422ZM14.0234 13.0516L14.0328 21.4797L10.6156 24.625L4.7375 18.6906C4.7375 18.6906 4.70469 18.6391 4.68594 18.6203L8.37031 13.2437C8.45 13.1266 8.58125 13.0562 8.72187 13.0562H14.0188L14.0234 13.0516Z" fill="#009698"/>
</svg>
